<svg width="56" height="56" viewBox="0 0 56 56" fill="none" xmlns="http://www.w3.org/2000/svg">
<rect width="56" height="56" rx="8" fill="#F5CD2C" fill-opacity="0.12"/>
<g clip-path="url(#clip0_160_62)">
<path d="M28 42.0027V18.0027" stroke="#2E3C54" stroke-width="2" stroke-linecap="round" stroke-linejoin="round"/>
<path d="M22 42.0027H34" stroke="#2E3C54" stroke-width="2" stroke-linecap="round" stroke-linejoin="round"/>
<path d="M30 16.0027H37" stroke="#2E3C54" stroke-width="2" stroke-linecap="round" stroke-linejoin="round"/>
<path d="M19 16.0027H26" stroke="#2E3C54" stroke-width="2" stroke-linecap="round" stroke-linejoin="round"/>
<path d="M26 16.0027C26 16.5331 26.2107 17.0418 26.5858 17.4169C26.9609 17.792 27.4696 18.0027 28 18.0027C28.5304 18.0027 29.0391 17.792 29.4142 17.4169C29.7893 17.0418 30 16.5331 30 16.0027C30 15.4723 29.7893 14.9635 29.4142 14.5885C29.0391 14.2134 28.5304 14.0027 28 14.0027C27.4696 14.0027 26.9609 14.2134 26.5858 14.5885C26.2107 14.9635 26 15.4723 26 16.0027V16.0027Z" stroke="#2E3C54" stroke-width="2" stroke-linecap="round" stroke-linejoin="round"/>
<path d="M24 30.0027C24 31.3288 23.4732 32.6005 22.5355 33.5382C21.5979 34.4759 20.3261 35.0027 19 35.0027C17.6739 35.0027 16.4021 34.4759 15.4645 33.5382C14.5268 32.6005 14 31.3288 14 30.0027H24Z" stroke="#F5CD2C" stroke-width="2" stroke-linecap="round" stroke-linejoin="round"/>
<path d="M19 16.0027L14 26.0027" stroke="#2E3C54" stroke-width="2" stroke-linecap="round" stroke-linejoin="round"/>
<path d="M19 16.0027L24 26.0027" stroke="#2E3C54" stroke-width="2" stroke-linecap="round" stroke-linejoin="round"/>
<path d="M42 30.0027C42 31.3288 41.4732 32.6005 40.5355 33.5382C39.5979 34.4759 38.3261 35.0027 37 35.0027C35.6739 35.0027 34.4021 34.4759 33.4645 33.5382C32.5268 32.6005 32 31.3288 32 30.0027H42Z" stroke="#F5CD2C" stroke-width="2" stroke-linecap="round" stroke-linejoin="round"/>
<path d="M37 16.0027L32 26.0027" stroke="#2E3C54" stroke-width="2" stroke-linecap="round" stroke-linejoin="round"/>
<path d="M37 16.0027L42 26.0027" stroke="#2E3C54" stroke-width="2" stroke-linecap="round" stroke-linejoin="round"/>
</g>
<defs>
<clipPath id="clip0_160_62">
<rect width="32" height="30" fill="white" transform="translate(12 13.0027)"/>
</clipPath>
</defs>
</svg>
