<svg width="56" height="56" viewBox="0 0 56 56" fill="none" xmlns="http://www.w3.org/2000/svg">
<rect width="56" height="56" rx="8" fill="#EBFFFB"/>
<path d="M21.3331 42.996L26.7358 30.3907C26.8008 30.2385 26.8271 30.0727 26.8123 29.9079C26.7975 29.7432 26.7422 29.5847 26.6512 29.4465C26.5602 29.3084 26.4364 29.1949 26.2908 29.1163C26.1453 29.0377 25.9825 28.9964 25.8171 28.996H21.8665C21.7005 28.9966 21.537 28.9559 21.3908 28.8775C21.2445 28.7991 21.1201 28.6854 21.0288 28.5469C20.9375 28.4083 20.8821 28.2492 20.8678 28.0839C20.8534 27.9185 20.8804 27.7522 20.9465 27.6L27.0665 13.6C27.1443 13.4217 27.2723 13.27 27.435 13.1635C27.5977 13.0569 27.788 13.0001 27.9825 13H38.2491C38.4375 13.0001 38.6221 13.0534 38.7815 13.1537C38.941 13.2541 39.0688 13.3975 39.1503 13.5673C39.2318 13.7372 39.2637 13.9266 39.2423 14.1138C39.2208 14.301 39.1469 14.4783 39.0291 14.6253L33.6291 21.376C33.5116 21.5231 33.4381 21.7004 33.4169 21.8875C33.3957 22.0746 33.4278 22.2639 33.5094 22.4335C33.5911 22.6032 33.7189 22.7464 33.8783 22.8466C34.0377 22.9468 34.2222 23 34.4105 23H38.9198C39.1177 22.9999 39.3112 23.0586 39.4758 23.1685C39.6404 23.2785 39.7686 23.4348 39.8443 23.6177C39.92 23.8006 39.9397 24.0018 39.9009 24.1959C39.8621 24.39 39.7666 24.5682 39.6265 24.708L21.3331 42.996Z" stroke="#2E3C54" stroke-width="2" stroke-linejoin="round"/>
<path d="M19.206 15.8317L17 14.3743" stroke="#58DBC2" stroke-width="2" stroke-linecap="round"/>
<path d="M17.5324 20.8862L15 21.646" stroke="#58DBC2" stroke-width="2" stroke-linecap="round"/>
</svg>
