<svg width="40" height="40" viewBox="0 0 40 40" fill="none" xmlns="http://www.w3.org/2000/svg">
<path d="M18.7483 28.7534C18.7483 30.0666 19.0069 31.367 19.5095 32.5803C20.012 33.7935 20.7486 34.8959 21.6772 35.8245C22.6058 36.7531 23.7082 37.4897 24.9215 37.9922C26.1347 38.4948 27.4351 38.7534 28.7483 38.7534C30.0615 38.7534 31.3619 38.4948 32.5751 37.9922C33.7884 37.4897 34.8908 36.7531 35.8194 35.8245C36.7479 34.8959 37.4845 33.7935 37.9871 32.5803C38.4896 31.367 38.7483 30.0666 38.7483 28.7534C38.7483 27.4402 38.4896 26.1398 37.9871 24.9266C37.4845 23.7133 36.7479 22.6109 35.8194 21.6824C34.8908 20.7538 33.7884 20.0172 32.5751 19.5146C31.3619 19.0121 30.0615 18.7534 28.7483 18.7534C27.4351 18.7534 26.1347 19.0121 24.9215 19.5146C23.7082 20.0172 22.6058 20.7538 21.6772 21.6824C20.7486 22.6109 20.012 23.7133 19.5095 24.9266C19.0069 26.1398 18.7483 27.4402 18.7483 28.7534V28.7534Z" stroke="#58DBC2" stroke-width="2" stroke-linecap="round" stroke-linejoin="round"/>
<path d="M23.7483 28.7534H33.7483" stroke="#58DBC2" stroke-width="2" stroke-linecap="round" stroke-linejoin="round"/>
<path d="M33.7483 28.7534L29.9983 32.5034" stroke="#58DBC2" stroke-width="2" stroke-linecap="round" stroke-linejoin="round"/>
<path d="M33.7483 28.7534L29.9983 25.0034" stroke="#58DBC2" stroke-width="2" stroke-linecap="round" stroke-linejoin="round"/>
<path d="M13.7483 26.2534H3.74829C3.08525 26.2534 2.44936 25.99 1.98052 25.5212C1.51168 25.0523 1.24829 24.4165 1.24829 23.7534V3.75342C1.24829 3.09038 1.51168 2.45449 1.98052 1.98565C2.44936 1.51681 3.08525 1.25342 3.74829 1.25342H33.7483C34.4113 1.25342 35.0472 1.51681 35.5161 1.98565C35.9849 2.45449 36.2483 3.09038 36.2483 3.75342V15.0001" stroke="#2E3C54" stroke-width="2" stroke-linecap="round" stroke-linejoin="round"/>
<path d="M35.6816 2.16675L22.1082 12.6101C21.1447 13.3514 19.9631 13.7533 18.7474 13.7533C17.5317 13.7533 16.3501 13.3514 15.3866 12.6101L1.81323 2.16675" stroke="#2E3C54" stroke-width="2" stroke-linecap="round" stroke-linejoin="round"/>
</svg>
