<svg width="40" height="40" viewBox="0 0 40 40" fill="none" xmlns="http://www.w3.org/2000/svg">
<path d="M15 15C15.0002 14.0834 15.2523 13.1845 15.7289 12.4015C16.2054 11.6185 16.888 10.9815 17.7022 10.5603C18.5162 10.139 19.4305 9.94966 20.3448 10.0129C21.2593 10.0761 22.1388 10.3895 22.8872 10.9188C23.6355 11.4481 24.224 12.1729 24.5882 13.014C24.9525 13.8551 25.0785 14.7802 24.9525 15.6881C24.8265 16.5961 24.4535 17.452 23.874 18.1621C23.2945 18.8723 22.5308 19.4095 21.6667 19.715C21.179 19.8875 20.7568 20.2068 20.4583 20.6291C20.1598 21.0516 19.9997 21.5561 20 22.0733V23.75" stroke="#58DBC2" stroke-width="2" stroke-linecap="round" stroke-linejoin="round"/>
<path d="M20 30C19.6548 30 19.375 29.7202 19.375 29.375C19.375 29.0298 19.6548 28.75 20 28.75" stroke="#58DBC2" stroke-width="2"/>
<path d="M20 30C20.3452 30 20.625 29.7202 20.625 29.375C20.625 29.0298 20.3452 28.75 20 28.75" stroke="#58DBC2" stroke-width="2"/>
<path d="M20 38.75C30.3553 38.75 38.75 30.3553 38.75 20C38.75 9.64467 30.3553 1.25 20 1.25C9.64467 1.25 1.25 9.64467 1.25 20C1.25 30.3553 9.64467 38.75 20 38.75Z" stroke="#2E3C54" stroke-width="2" stroke-miterlimit="10"/>
</svg>
