<svg width="337" height="365" viewBox="0 0 337 365" fill="none" xmlns="http://www.w3.org/2000/svg">
<g clip-path="url(#clip0_160_232)">
<path opacity="0.24" d="M272.12 317.58C272.12 305.523 267.33 293.96 258.805 285.435C250.28 276.91 238.717 272.12 226.66 272.12H109.58C97.5232 272.12 85.9603 276.91 77.4349 285.435C68.9095 293.96 64.12 305.523 64.12 317.58V364.08H272.12V317.58Z" fill="#58DBC2"/>
<path d="M226.66 64.1299H109.58C84.4731 64.1299 64.12 84.483 64.12 109.59V226.67C64.12 251.777 84.4731 272.13 109.58 272.13H226.66C251.767 272.13 272.12 251.777 272.12 226.67V109.59C272.12 84.483 251.767 64.1299 226.66 64.1299Z" fill="#58DBC2"/>
<path d="M192.25 212.1H143.99C142.79 212.06 141.595 212.262 140.474 212.693C139.354 213.125 138.332 213.777 137.469 214.612C136.606 215.446 135.92 216.446 135.451 217.551C134.982 218.656 134.741 219.845 134.741 221.045C134.741 222.246 134.982 223.434 135.451 224.539C135.92 225.644 136.606 226.644 137.469 227.479C138.332 228.313 139.354 228.966 140.474 229.397C141.595 229.829 142.79 230.03 143.99 229.99H192.25C193.45 230.03 194.645 229.829 195.766 229.397C196.886 228.966 197.908 228.313 198.771 227.479C199.634 226.644 200.32 225.644 200.789 224.539C201.258 223.434 201.499 222.246 201.499 221.045C201.499 219.845 201.258 218.656 200.789 217.551C200.32 216.446 199.634 215.446 198.771 214.612C197.908 213.777 196.886 213.125 195.766 212.693C194.645 212.262 193.45 212.06 192.25 212.1Z" fill="white"/>
<path d="M230.36 150.98L188.42 108.98C185.755 106.312 182.591 104.196 179.108 102.751C175.625 101.307 171.891 100.564 168.12 100.564C164.349 100.564 160.615 101.307 157.132 102.751C153.649 104.196 150.485 106.312 147.82 108.98L105.88 150.98C93.36 163.51 102.24 184.98 119.95 184.98H216.29C234 184.93 242.88 163.51 230.36 150.98ZM216.6 166.85H119.6C119.276 166.85 118.958 166.754 118.688 166.574C118.419 166.394 118.208 166.138 118.084 165.838C117.96 165.538 117.928 165.208 117.991 164.89C118.054 164.572 118.211 164.28 118.44 164.05L160.79 121.7C161.752 120.737 162.895 119.973 164.153 119.451C165.41 118.93 166.758 118.661 168.12 118.661C169.482 118.661 170.83 118.93 172.087 119.451C173.345 119.973 174.488 120.737 175.45 121.7L217.76 164.06C217.986 164.29 218.139 164.581 218.201 164.898C218.262 165.215 218.229 165.542 218.105 165.84C217.981 166.138 217.773 166.392 217.505 166.572C217.237 166.752 216.922 166.848 216.6 166.85Z" fill="white"/>
<path d="M143.99 332.15H192.25C193.45 332.19 194.645 331.988 195.766 331.557C196.886 331.125 197.908 330.473 198.771 329.638C199.634 328.804 200.32 327.804 200.789 326.699C201.258 325.594 201.499 324.405 201.499 323.205C201.499 322.004 201.258 320.816 200.789 319.711C200.32 318.606 199.634 317.606 198.771 316.771C197.908 315.937 196.886 315.284 195.766 314.853C194.645 314.421 193.45 314.22 192.25 314.26H143.99C142.79 314.22 141.595 314.421 140.474 314.853C139.354 315.284 138.332 315.937 137.469 316.771C136.606 317.606 135.92 318.606 135.451 319.711C134.982 320.816 134.741 322.004 134.741 323.205C134.741 324.405 134.982 325.594 135.451 326.699C135.92 327.804 136.606 328.804 137.469 329.638C138.332 330.473 139.354 331.125 140.474 331.557C141.595 331.988 142.79 332.19 143.99 332.15Z" fill="white"/>
<path d="M272.12 272.13H64.12V364.08H272.12V272.13Z" fill="url(#paint0_linear_160_232)"/>
<path d="M334.12 170.25H323.12C322.829 170.27 322.536 170.23 322.261 170.132C321.986 170.035 321.734 169.881 321.521 169.682C321.307 169.483 321.137 169.242 321.021 168.974C320.904 168.706 320.844 168.417 320.844 168.125C320.844 167.833 320.904 167.544 321.021 167.276C321.137 167.009 321.307 166.768 321.521 166.568C321.734 166.369 321.986 166.216 322.261 166.118C322.536 166.02 322.829 165.98 323.12 166H334.12C334.658 166.037 335.163 166.277 335.531 166.671C335.899 167.066 336.104 167.585 336.104 168.125C336.104 168.665 335.899 169.184 335.531 169.579C335.163 169.973 334.658 170.213 334.12 170.25ZM301.12 170.25H290.12C289.829 170.27 289.536 170.23 289.261 170.132C288.986 170.035 288.734 169.881 288.521 169.682C288.307 169.483 288.137 169.242 288.021 168.974C287.904 168.706 287.844 168.417 287.844 168.125C287.844 167.833 287.904 167.544 288.021 167.276C288.137 167.009 288.307 166.768 288.521 166.568C288.734 166.369 288.986 166.216 289.261 166.118C289.536 166.02 289.829 165.98 290.12 166H301.12C301.658 166.037 302.163 166.277 302.531 166.671C302.899 167.066 303.104 167.585 303.104 168.125C303.104 168.665 302.899 169.184 302.531 169.579C302.163 169.973 301.658 170.213 301.12 170.25Z" fill="#B5F1E6"/>
<path d="M46.12 170.25H35.12C34.5816 170.213 34.0773 169.973 33.709 169.579C33.3407 169.184 33.1359 168.665 33.1359 168.125C33.1359 167.585 33.3407 167.066 33.709 166.671C34.0773 166.277 34.5816 166.037 35.12 166H46.12C46.4113 165.98 46.7037 166.02 46.9788 166.118C47.254 166.216 47.5061 166.369 47.7195 166.568C47.933 166.768 48.1031 167.009 48.2195 167.276C48.3358 167.544 48.3959 167.833 48.3959 168.125C48.3959 168.417 48.3358 168.706 48.2195 168.974C48.1031 169.242 47.933 169.483 47.7195 169.682C47.5061 169.881 47.254 170.035 46.9788 170.132C46.7037 170.23 46.4113 170.27 46.12 170.25ZM13.12 170.25H2.12C1.5816 170.213 1.07729 169.973 0.708984 169.579C0.340683 169.184 0.135864 168.665 0.135864 168.125C0.135864 167.585 0.340683 167.066 0.708984 166.671C1.07729 166.277 1.5816 166.037 2.12 166H13.12C13.4113 165.98 13.7037 166.02 13.9788 166.118C14.254 166.216 14.5061 166.369 14.7195 166.568C14.933 166.768 15.1031 167.009 15.2195 167.276C15.3358 167.544 15.3959 167.833 15.3959 168.125C15.3959 168.417 15.3358 168.706 15.2195 168.974C15.1031 169.242 14.933 169.483 14.7195 169.682C14.5061 169.881 14.254 170.035 13.9788 170.132C13.7037 170.23 13.4113 170.27 13.12 170.25Z" fill="#B5F1E6"/>
<path d="M168.12 48.2499C167.841 48.2499 167.564 48.1947 167.306 48.0876C167.049 47.9804 166.814 47.8233 166.617 47.6254C166.42 47.4275 166.264 47.1926 166.158 46.9343C166.053 46.6759 165.999 46.3991 166 46.1199V35.1199C166.037 34.5815 166.277 34.0772 166.671 33.7089C167.066 33.3406 167.585 33.1357 168.125 33.1357C168.665 33.1357 169.184 33.3406 169.579 33.7089C169.973 34.0772 170.213 34.5815 170.25 35.1199V46.1199C170.25 46.3996 170.195 46.6766 170.088 46.935C169.981 47.1934 169.824 47.4282 169.626 47.626C169.428 47.8238 169.194 47.9807 168.935 48.0878C168.677 48.1948 168.4 48.2499 168.12 48.2499ZM168.12 15.2499C167.841 15.2499 167.564 15.1947 167.306 15.0876C167.049 14.9804 166.814 14.8233 166.617 14.6254C166.42 14.4275 166.264 14.1926 166.158 13.9343C166.053 13.6759 165.999 13.3991 166 13.1199V2.1199C166.037 1.58151 166.277 1.07719 166.671 0.708893C167.066 0.340592 167.585 0.135742 168.125 0.135742C168.665 0.135742 169.184 0.340592 169.579 0.708893C169.973 1.07719 170.213 1.58151 170.25 2.1199V13.1199C170.25 13.3996 170.195 13.6766 170.088 13.935C169.981 14.1934 169.824 14.4282 169.626 14.626C169.428 14.8238 169.194 14.9807 168.935 15.0878C168.677 15.1948 168.4 15.2499 168.12 15.2499Z" fill="#B5F1E6"/>
<path d="M168.12 336.25C167.841 336.25 167.564 336.195 167.306 336.088C167.049 335.98 166.814 335.823 166.617 335.625C166.42 335.428 166.264 335.193 166.158 334.934C166.053 334.676 165.999 334.399 166 334.12V323.12C166.037 322.581 166.277 322.077 166.671 321.709C167.066 321.341 167.585 321.136 168.125 321.136C168.665 321.136 169.184 321.341 169.579 321.709C169.973 322.077 170.213 322.581 170.25 323.12V334.12C170.25 334.4 170.195 334.677 170.088 334.935C169.981 335.193 169.824 335.428 169.626 335.626C169.428 335.824 169.194 335.981 168.935 336.088C168.677 336.195 168.4 336.25 168.12 336.25ZM168.12 303.25C167.841 303.25 167.564 303.195 167.306 303.088C167.049 302.98 166.814 302.823 166.617 302.625C166.42 302.428 166.264 302.193 166.158 301.934C166.053 301.676 165.999 301.399 166 301.12V290.12C166.037 289.581 166.277 289.077 166.671 288.709C167.066 288.341 167.585 288.136 168.125 288.136C168.665 288.136 169.184 288.341 169.579 288.709C169.973 289.077 170.213 289.581 170.25 290.12V301.12C170.25 301.4 170.195 301.677 170.088 301.935C169.981 302.193 169.824 302.428 169.626 302.626C169.428 302.824 169.194 302.981 168.935 303.088C168.677 303.195 168.4 303.25 168.12 303.25Z" fill="#B5F1E6"/>
</g>
<defs>
<linearGradient id="paint0_linear_160_232" x1="168.12" y1="362.33" x2="168.12" y2="275.84" gradientUnits="userSpaceOnUse">
<stop offset="0.19" stop-color="white"/>
<stop offset="1" stop-color="white" stop-opacity="0"/>
</linearGradient>
<clipPath id="clip0_160_232">
<rect width="336.25" height="364.08" fill="white"/>
</clipPath>
</defs>
</svg>
