<svg width="56" height="56" viewBox="0 0 56 56" fill="none" xmlns="http://www.w3.org/2000/svg">
<rect width="56" height="56" rx="8" fill="#9776E5" fill-opacity="0.08"/>
<g clip-path="url(#clip0_160_77)">
<path d="M29.4267 28.5627C29.0471 28.9389 28.5344 29.1499 28 29.1499C27.4656 29.1499 26.9529 28.9389 26.5733 28.5627L19.48 21.336C18.7392 20.624 18.2471 19.6925 18.0767 18.6792C17.9062 17.6659 18.0663 16.6246 18.5333 15.7094C18.9048 15.0003 19.4373 14.3883 20.0881 13.9223C20.7389 13.4564 21.4899 13.1495 22.2808 13.0263C23.0717 12.9031 23.8804 12.9671 24.6421 13.2131C25.4038 13.4591 26.0972 13.8802 26.6667 14.4427L28 15.776L29.3333 14.4427C29.9028 13.8909 30.5927 13.4789 31.3486 13.2392C32.1045 12.9995 32.9057 12.9387 33.6891 13.0615C34.4725 13.1843 35.2167 13.4874 35.863 13.9469C36.5093 14.4064 37.04 15.0098 37.4133 15.7094V15.7094C37.8869 16.6192 38.0557 17.6571 37.8949 18.6701C37.7341 19.6831 37.2521 20.6176 36.52 21.336L29.4267 28.5627Z" stroke="#9776E5" stroke-width="2" stroke-linecap="round" stroke-linejoin="round"/>
<path d="M17 43.0028L14.3333 39.8295C13.4759 38.7685 13.0056 37.4469 13 36.0828V29.1895C13 28.659 13.2107 28.1503 13.5858 27.7752C13.9609 27.4002 14.4696 27.1895 15 27.1895V27.1895C15.5304 27.1895 16.0391 27.4002 16.4142 27.7752C16.7893 28.1503 17 28.659 17 29.1895V34.3361" stroke="#2E3C54" stroke-width="2" stroke-linecap="round" stroke-linejoin="round"/>
<path d="M23 43.0028V39.0028C23.0026 37.8154 22.6496 36.6545 21.9867 35.6694L20.4667 33.3361C20.3377 33.1141 20.1641 32.9214 19.9568 32.77C19.7494 32.6186 19.5129 32.512 19.2622 32.4569C19.0115 32.4017 18.7521 32.3992 18.5004 32.4496C18.2487 32.5 18.0102 32.6021 17.8 32.7494V32.7494C17.423 33.0029 17.1514 33.3851 17.0361 33.8245C16.9207 34.2638 16.9695 34.7302 17.1733 35.1361L18.9733 38.1361" stroke="#2E3C54" stroke-width="2" stroke-linecap="round" stroke-linejoin="round"/>
<path d="M39 43.0028L41.6667 39.8295C42.5241 38.7685 42.9944 37.4469 43 36.0828V29.1895C43 28.659 42.7893 28.1503 42.4142 27.7752C42.0391 27.4002 41.5304 27.1895 41 27.1895C40.4696 27.1895 39.9609 27.4002 39.5858 27.7752C39.2107 28.1503 39 28.659 39 29.1895V34.3361" stroke="#2E3C54" stroke-width="2" stroke-linecap="round" stroke-linejoin="round"/>
<path d="M33 43.0028V39.0028C32.9974 37.8154 33.3504 36.6545 34.0133 35.6694L35.5333 33.3361C35.6623 33.1141 35.8359 32.9214 36.0432 32.77C36.2506 32.6186 36.4871 32.512 36.7378 32.4569C36.9885 32.4017 37.2479 32.3992 37.4996 32.4496C37.7513 32.5 37.9898 32.6021 38.2 32.7494V32.7494C38.577 33.0029 38.8486 33.3851 38.9639 33.8245C39.0793 34.2638 39.0305 34.7302 38.8267 35.1361L37.0267 38.1361" stroke="#2E3C54" stroke-width="2" stroke-linecap="round" stroke-linejoin="round"/>
</g>
<defs>
<clipPath id="clip0_160_77">
<rect width="32" height="32" fill="white" transform="translate(12 12.0029)"/>
</clipPath>
</defs>
</svg>
