<svg width="56" height="56" viewBox="0 0 56 56" fill="none" xmlns="http://www.w3.org/2000/svg">
<rect width="56" height="56" rx="8" fill="#E15B76" fill-opacity="0.08"/>
<g clip-path="url(#clip0_160_42)">
<path d="M37.56 37.9331L30.52 39.3464" stroke="#2E3C54" stroke-width="2" stroke-linecap="round" stroke-linejoin="round"/>
<path d="M31.3334 31.44L28.0001 32.8C27.7445 32.9147 27.4687 32.9779 27.1887 32.9861C26.9086 32.9942 26.6297 32.9471 26.3678 32.8474C26.1059 32.7477 25.8663 32.5975 25.6625 32.4052C25.4587 32.2129 25.2948 31.9823 25.1801 31.7267C25.0654 31.4711 25.0022 31.1953 24.9941 30.9153C24.9859 30.6352 25.033 30.3563 25.1327 30.0944C25.2324 29.8325 25.3827 29.5929 25.5749 29.3891C25.7672 29.1853 25.9978 29.0214 26.2534 28.9067L29.5468 27.3067C29.9616 27.1031 30.418 26.9982 30.8801 27C31.2206 27.0033 31.5583 27.0619 31.8801 27.1734L37.8934 29.48" stroke="#2E3C54" stroke-width="2" stroke-linecap="round" stroke-linejoin="round"/>
<path d="M18 39.4398H20.48L24.6267 42.6665C24.8385 42.8971 25.1305 43.038 25.4428 43.0604C25.7552 43.0827 26.0642 42.9847 26.3067 42.7865L32.52 37.7998C32.6602 37.7011 32.7777 37.5735 32.8644 37.4256C32.9512 37.2776 33.0052 37.1128 33.0229 36.9423C33.0406 36.7717 33.0215 36.5993 32.967 36.4367C32.9124 36.2742 32.8237 36.1252 32.7067 35.9998L29.3333 32.2798" stroke="#2E3C54" stroke-width="2" stroke-linecap="round" stroke-linejoin="round"/>
<path d="M26 29.0798L25.5733 28.7198C25.1184 28.3834 24.5657 28.2054 24 28.2131C23.6667 28.214 23.3366 28.2773 23.0267 28.3998L18 30.5598" stroke="#2E3C54" stroke-width="2" stroke-linecap="round" stroke-linejoin="round"/>
<path d="M13.5601 41.2268H16.2267C16.6983 41.2233 17.1493 41.0335 17.4815 40.6988C17.8137 40.3641 18.0001 39.9117 18.0001 39.4401V30.5601C18.0001 30.0886 17.8137 29.6361 17.4815 29.3014C17.1493 28.9667 16.6983 28.777 16.2267 28.7734H13.5601" stroke="#2E3C54" stroke-width="2" stroke-linecap="round" stroke-linejoin="round"/>
<path d="M42.0001 41.2268H39.3334C39.0994 41.2268 38.8677 41.1805 38.6517 41.0905C38.4357 41.0006 38.2396 40.8688 38.0748 40.7027C37.9099 40.5366 37.7796 40.3395 37.6913 40.1228C37.6029 39.9061 37.5583 39.6741 37.5601 39.4401V30.5601C37.5583 30.3261 37.6029 30.0941 37.6913 29.8774C37.7796 29.6607 37.9099 29.4636 38.0748 29.2975C38.2396 29.1315 38.4357 28.9996 38.6517 28.9097C38.8677 28.8197 39.0994 28.7734 39.3334 28.7734H42.0001" stroke="#2E3C54" stroke-width="2" stroke-linecap="round" stroke-linejoin="round"/>
<path d="M40.7734 24L27.7734 13L14.7734 24" stroke="#E15B76" stroke-width="2" stroke-linecap="round" stroke-linejoin="round"/>
<path d="M34.7734 14H38.7734V18" stroke="#E15B76" stroke-width="2" stroke-linecap="round" stroke-linejoin="round"/>
</g>
<defs>
<clipPath id="clip0_160_42">
<rect width="32" height="32" fill="white" transform="translate(12 12)"/>
</clipPath>
</defs>
</svg>
