<svg width="41" height="40" viewBox="0 0 41 40" fill="none" xmlns="http://www.w3.org/2000/svg">
<g clip-path="url(#clip0_3_255)">
<path d="M20.5819 37.5666L20.5985 37.5783C22.0361 38.4952 23.7431 38.8934 25.4372 38.7071C27.1313 38.5207 28.7113 37.7609 29.916 36.5533L30.9626 35.505C31.1945 35.2728 31.3785 34.9971 31.504 34.6937C31.6295 34.3903 31.6942 34.0651 31.6942 33.7366C31.6942 33.4082 31.6295 33.083 31.504 32.7796C31.3785 32.4762 31.1945 32.2005 30.9626 31.9683L26.5484 27.55C26.3166 27.3177 26.0414 27.1334 25.7385 27.0076C25.4356 26.8819 25.111 26.8172 24.7831 26.8172C24.4552 26.8172 24.1305 26.8819 23.8276 27.0076C23.5247 27.1334 23.2495 27.3177 23.0177 27.55C22.5497 28.0187 21.915 28.2819 21.2532 28.2819C20.5914 28.2819 19.9567 28.0187 19.4887 27.55L12.4307 20.4783C11.9628 20.0095 11.6999 19.3737 11.6999 18.7108C11.6999 18.0479 11.9628 17.4121 12.4307 16.9433V16.9433C12.6626 16.7111 12.8466 16.4355 12.9721 16.1321C13.0976 15.8286 13.1622 15.5034 13.1622 15.175C13.1622 14.8465 13.0976 14.5213 12.9721 14.2179C12.8466 13.9145 12.6626 13.6388 12.4307 13.4066L8.01815 8.98831C7.55012 8.51964 6.91543 8.25635 6.25364 8.25635C5.59185 8.25635 4.95716 8.51964 4.48913 8.98831L3.44091 10.0366C2.2356 11.2436 1.47743 12.8264 1.29168 14.5234C1.10593 16.2204 1.50372 17.9301 2.4193 19.37L2.42929 19.3866C7.26473 26.553 13.4268 32.7243 20.5819 37.5666V37.5666Z" stroke="#2E3C54" stroke-width="2" stroke-linecap="round" stroke-linejoin="round"/>
<path d="M18.7183 13.75C20.704 13.75 22.6084 14.5402 24.0126 15.9467C25.4167 17.3532 26.2056 19.2609 26.2056 21.25" stroke="#58DBC2" stroke-width="2" stroke-linecap="round" stroke-linejoin="round"/>
<path d="M18.7183 7.5C22.3588 7.5 25.8503 8.94866 28.4245 11.5273C30.9988 14.1059 32.445 17.6033 32.445 21.25" stroke="#58DBC2" stroke-width="2" stroke-linecap="round" stroke-linejoin="round"/>
<path d="M18.7183 1.25C24.0136 1.25 29.0921 3.35714 32.8365 7.10786C36.5808 10.8586 38.6844 15.9457 38.6844 21.25" stroke="#58DBC2" stroke-width="2" stroke-linecap="round" stroke-linejoin="round"/>
</g>
<defs>
<clipPath id="clip0_3_255">
<rect width="40" height="40" fill="white" transform="translate(0.0407715)"/>
</clipPath>
</defs>
</svg>
